<?xml version="1.0" encoding="utf-8"?>
<!-- Generator: Adobe Illustrator 24.2.1, SVG Export Plug-In . SVG Version: 6.00 Build 0)  -->
<svg version="1.1" id="Layer_1" xmlns="http://www.w3.org/2000/svg" xmlns:xlink="http://www.w3.org/1999/xlink" x="0px" y="0px"
	 viewBox="0 0 612 224" style="enable-background:new 0 0 612 224;" xml:space="preserve">
<style type="text/css">
	.st0{fill:#FFFFFF;}
	.st1{fill:#F0B022;}
	.st2{fill:#00AE72;}
	.st3{fill:#41B3DE;}
	.st4{fill:#EA2947;}
	.st5{fill:none;}
	.st6{font-family:'SlimJoe';}
	.st7{font-size:26.3924px;}
</style>
<g>
	<g>
		<path class="st0" d="M75.6,87v23.5h20.9V87h17.3v66H96.5v-25.2H75.6V153H58.2V87H75.6z"/>
		<path class="st0" d="M122.7,153l30.8-66h7.8l31,66h-17.3l-4-8.6h-27l-4,8.6H122.7z M150.8,129.8h13.5l-6.7-14.5L150.8,129.8z"/>
		<path class="st0" d="M329,87l-30.1,30.2l35.7,35.8h-24.5l-23.5-23.4l-4.1,4.2V153h-17.3V87h17.3v22.3L304.7,87H329z"/>
		<path class="st0" d="M342.1,87h41.3v14.2h-24V112h21.2v14.7h-21.2V153h-17.3V87z"/>
		<path class="st0" d="M395.9,87h41v14.3h-23.7v10.7h20.9v14.6h-20.9v12.1h23.7V153h-41V87z"/>
		<path class="st0" d="M473.6,107.3c0-2.7-2.3-5-5-5s-4.9,2.3-4.9,5c0,2.7,2.2,4.9,4.9,4.9c6.4,0,12.2,3.1,15.9,7.8
			c2.8,3.5,4.4,7.9,4.4,12.8c0,11.3-9.1,20.2-20.3,20.2c-11.3,0-20.3-8.9-20.3-20.5h15.4c0,2.8,2.2,5,4.9,5s5-2.2,5-4.9s-2.3-5-5-5
			c-11.3,0-20.2-9-20.2-20.2s9-20.3,20.2-20.3c11.3,0,20.3,9,20.3,20.2H473.6z"/>
		<path class="st0" d="M499.8,87h52v17.2h-17.5v48.8h-17.3v-48.8h-17.2V87z"/>
		<g>
			<g>
				<g>
					<path class="st0" d="M255.8,107c-5.1-12.1-17.1-20.7-31.1-20.7c-18.6,0-33.7,15.1-33.7,33.7c0,18.6,15.1,33.7,33.7,33.7
						c13.9,0,25.8-8.4,31-20.4l-22.8-13.1L255.8,107z M227.5,101.6c0-2.7,2.2-4.9,4.9-4.9c2.7,0,4.9,2.2,4.9,4.9s-2.2,4.9-4.9,4.9
						C229.7,106.5,227.5,104.3,227.5,101.6z"/>
				</g>
			</g>
		</g>
	</g>
	<g>
		<rect x="58.4" y="169.6" class="st1" width="123.3" height="9.3"/>
		<rect x="181.7" y="169.6" class="st2" width="123.3" height="9.3"/>
		<rect x="305" y="169.6" class="st3" width="123.3" height="9.3"/>
		<rect x="428.3" y="169.6" class="st4" width="123.3" height="9.3"/>
	</g>
	<rect x="192.6" y="41.1" class="st5" width="224.7" height="42.4"/>
	<text transform="matrix(1 0 0 1 192.6326 60.9312)" class="st0 st6 st7">inland empire</text>
</g>
</svg>
